<mxfile host="app.diagrams.net" modified="2023-10-28T12:49:31.883Z" agent="Mozilla/5.0 (Macintosh; Intel Mac OS X 10_15_7) AppleWebKit/605.1.15 (KHTML, like Gecko) Version/15.4 Safari/605.1.15" etag="bYPox9IF3lu1nY8Wz5-m" version="22.0.8" type="device">
  <diagram name="Страница — 1" id="tZwxWgp7a3EEHz6IycM4">
    <mxGraphModel dx="1026" dy="692" grid="1" gridSize="10" guides="1" tooltips="1" connect="1" arrows="1" fold="1" page="1" pageScale="1" pageWidth="3300" pageHeight="4681" math="0" shadow="0">
      <root>
        <mxCell id="0" />
        <mxCell id="1" parent="0" />
        <mxCell id="diGxEo3-Bpj6ORNVQll2-1" value="Admin" style="shape=umlActor;verticalLabelPosition=bottom;verticalAlign=top;html=1;strokeColor=#457B9D;fontColor=#1D3557;fillColor=#A8DADC;" vertex="1" parent="1">
          <mxGeometry x="65" y="20" width="30" height="60" as="geometry" />
        </mxCell>
        <mxCell id="diGxEo3-Bpj6ORNVQll2-2" value="" style="endArrow=none;dashed=1;html=1;dashPattern=1 3;strokeWidth=2;rounded=0;strokeColor=#457B9D;fontColor=#1D3557;fillColor=#A8DADC;entryX=0.5;entryY=0.5;entryDx=0;entryDy=0;entryPerimeter=0;" edge="1" parent="1" source="diGxEo3-Bpj6ORNVQll2-64" target="diGxEo3-Bpj6ORNVQll2-1">
          <mxGeometry width="50" height="50" relative="1" as="geometry">
            <mxPoint x="80" y="1960" as="sourcePoint" />
            <mxPoint x="80" y="150" as="targetPoint" />
          </mxGeometry>
        </mxCell>
        <mxCell id="diGxEo3-Bpj6ORNVQll2-3" value="UI" style="shape=umlBoundary;whiteSpace=wrap;html=1;strokeColor=#457B9D;fontColor=#1D3557;fillColor=#A8DADC;" vertex="1" parent="1">
          <mxGeometry x="320" y="20" width="70" height="60" as="geometry" />
        </mxCell>
        <mxCell id="diGxEo3-Bpj6ORNVQll2-4" value="" style="endArrow=none;dashed=1;html=1;dashPattern=1 3;strokeWidth=2;rounded=0;strokeColor=#457B9D;fontColor=#1D3557;fillColor=#A8DADC;entryX=0.586;entryY=1.05;entryDx=0;entryDy=0;entryPerimeter=0;" edge="1" parent="1" source="diGxEo3-Bpj6ORNVQll2-58" target="diGxEo3-Bpj6ORNVQll2-3">
          <mxGeometry width="50" height="50" relative="1" as="geometry">
            <mxPoint x="361" y="1960" as="sourcePoint" />
            <mxPoint x="360" y="110" as="targetPoint" />
          </mxGeometry>
        </mxCell>
        <mxCell id="diGxEo3-Bpj6ORNVQll2-5" value="Logins &lt;br&gt;DB" style="ellipse;shape=umlEntity;whiteSpace=wrap;html=1;strokeColor=#457B9D;fontColor=#1D3557;fillColor=#A8DADC;" vertex="1" parent="1">
          <mxGeometry x="1170" y="15" width="60" height="60" as="geometry" />
        </mxCell>
        <mxCell id="diGxEo3-Bpj6ORNVQll2-6" value="" style="endArrow=none;dashed=1;html=1;dashPattern=1 3;strokeWidth=2;rounded=0;strokeColor=#457B9D;fontColor=#1D3557;fillColor=#A8DADC;entryX=0.5;entryY=1;entryDx=0;entryDy=0;" edge="1" parent="1" source="diGxEo3-Bpj6ORNVQll2-69" target="diGxEo3-Bpj6ORNVQll2-5">
          <mxGeometry width="50" height="50" relative="1" as="geometry">
            <mxPoint x="1200" y="1960" as="sourcePoint" />
            <mxPoint x="1201" y="95" as="targetPoint" />
          </mxGeometry>
        </mxCell>
        <mxCell id="diGxEo3-Bpj6ORNVQll2-7" value="Add&lt;br&gt;Trans-&lt;br&gt;action" style="ellipse;shape=umlControl;whiteSpace=wrap;html=1;strokeColor=#457B9D;fontColor=#1D3557;fillColor=#A8DADC;" vertex="1" parent="1">
          <mxGeometry x="890" y="10" width="60" height="70" as="geometry" />
        </mxCell>
        <mxCell id="diGxEo3-Bpj6ORNVQll2-8" value="" style="endArrow=none;dashed=1;html=1;dashPattern=1 3;strokeWidth=2;rounded=0;strokeColor=#457B9D;fontColor=#1D3557;fillColor=#A8DADC;entryX=0.5;entryY=1;entryDx=0;entryDy=0;entryPerimeter=0;" edge="1" parent="1" source="diGxEo3-Bpj6ORNVQll2-111" target="diGxEo3-Bpj6ORNVQll2-7">
          <mxGeometry width="50" height="50" relative="1" as="geometry">
            <mxPoint x="920" y="1960" as="sourcePoint" />
            <mxPoint x="920" y="105" as="targetPoint" />
          </mxGeometry>
        </mxCell>
        <mxCell id="diGxEo3-Bpj6ORNVQll2-9" value="User Based Back" style="ellipse;shape=umlControl;whiteSpace=wrap;html=1;strokeColor=#457B9D;fontColor=#1D3557;fillColor=#A8DADC;" vertex="1" parent="1">
          <mxGeometry x="610" y="10" width="60" height="70" as="geometry" />
        </mxCell>
        <mxCell id="diGxEo3-Bpj6ORNVQll2-10" value="" style="endArrow=none;dashed=1;html=1;dashPattern=1 3;strokeWidth=2;rounded=0;strokeColor=#457B9D;fontColor=#1D3557;fillColor=#A8DADC;entryX=0.5;entryY=1;entryDx=0;entryDy=0;entryPerimeter=0;" edge="1" parent="1" target="diGxEo3-Bpj6ORNVQll2-9" source="diGxEo3-Bpj6ORNVQll2-68">
          <mxGeometry width="50" height="50" relative="1" as="geometry">
            <mxPoint x="640" y="1960" as="sourcePoint" />
            <mxPoint x="640" y="105" as="targetPoint" />
          </mxGeometry>
        </mxCell>
        <mxCell id="diGxEo3-Bpj6ORNVQll2-11" value="&#39;Add User&#39; button pressed" style="html=1;verticalAlign=bottom;endArrow=block;curved=0;rounded=0;strokeColor=#457B9D;fontColor=#1D3557;fillColor=#A8DADC;" edge="1" parent="1">
          <mxGeometry width="80" relative="1" as="geometry">
            <mxPoint x="80" y="137" as="sourcePoint" />
            <mxPoint x="360" y="137" as="targetPoint" />
          </mxGeometry>
        </mxCell>
        <mxCell id="diGxEo3-Bpj6ORNVQll2-12" value="Enter User Nick Name" style="html=1;verticalAlign=bottom;endArrow=block;curved=0;rounded=0;strokeColor=#457B9D;fontColor=#1D3557;fillColor=#A8DADC;" edge="1" parent="1">
          <mxGeometry width="80" relative="1" as="geometry">
            <mxPoint x="80" y="540" as="sourcePoint" />
            <mxPoint x="360" y="540" as="targetPoint" />
            <mxPoint as="offset" />
          </mxGeometry>
        </mxCell>
        <mxCell id="diGxEo3-Bpj6ORNVQll2-13" value="Enter User email(login)" style="html=1;verticalAlign=bottom;endArrow=block;curved=0;rounded=0;strokeColor=#457B9D;fontColor=#1D3557;fillColor=#A8DADC;" edge="1" parent="1">
          <mxGeometry width="80" relative="1" as="geometry">
            <mxPoint x="80" y="570" as="sourcePoint" />
            <mxPoint x="360" y="570" as="targetPoint" />
            <mxPoint as="offset" />
          </mxGeometry>
        </mxCell>
        <mxCell id="diGxEo3-Bpj6ORNVQll2-14" value="Enter User Password" style="html=1;verticalAlign=bottom;endArrow=block;curved=0;rounded=0;strokeColor=#457B9D;fontColor=#1D3557;fillColor=#A8DADC;" edge="1" parent="1">
          <mxGeometry width="80" relative="1" as="geometry">
            <mxPoint x="80" y="680" as="sourcePoint" />
            <mxPoint x="360" y="680" as="targetPoint" />
            <mxPoint as="offset" />
          </mxGeometry>
        </mxCell>
        <mxCell id="diGxEo3-Bpj6ORNVQll2-15" value="Send request for &#39;Departments&#39; List" style="html=1;verticalAlign=bottom;endArrow=block;curved=0;rounded=0;strokeColor=#457B9D;fontColor=#1D3557;fillColor=#A8DADC;" edge="1" parent="1">
          <mxGeometry width="80" relative="1" as="geometry">
            <mxPoint x="360" y="185" as="sourcePoint" />
            <mxPoint x="640" y="185" as="targetPoint" />
          </mxGeometry>
        </mxCell>
        <mxCell id="diGxEo3-Bpj6ORNVQll2-16" value="Get &#39;Departments&#39; List" style="html=1;verticalAlign=bottom;endArrow=block;curved=0;rounded=0;strokeColor=#457B9D;fontColor=#1D3557;fillColor=#A8DADC;" edge="1" parent="1">
          <mxGeometry width="80" relative="1" as="geometry">
            <mxPoint x="640" y="206" as="sourcePoint" />
            <mxPoint x="1200" y="206" as="targetPoint" />
          </mxGeometry>
        </mxCell>
        <mxCell id="diGxEo3-Bpj6ORNVQll2-19" value="Send &#39;Departments&#39; List" style="html=1;verticalAlign=bottom;endArrow=block;curved=0;rounded=0;strokeColor=#457B9D;fontColor=#1D3557;fillColor=#A8DADC;" edge="1" parent="1">
          <mxGeometry width="80" relative="1" as="geometry">
            <mxPoint x="1200" y="300" as="sourcePoint" />
            <mxPoint x="640" y="300" as="targetPoint" />
          </mxGeometry>
        </mxCell>
        <mxCell id="diGxEo3-Bpj6ORNVQll2-20" value="Form &#39;Departments&#39; List" style="html=1;verticalAlign=bottom;endArrow=block;curved=0;rounded=0;strokeColor=#457B9D;fontColor=#1D3557;fillColor=#A8DADC;" edge="1" parent="1">
          <mxGeometry width="80" relative="1" as="geometry">
            <mxPoint x="1200" y="220" as="sourcePoint" />
            <mxPoint x="1200" y="280" as="targetPoint" />
            <Array as="points">
              <mxPoint x="1280" y="220" />
              <mxPoint x="1280" y="280" />
            </Array>
          </mxGeometry>
        </mxCell>
        <mxCell id="diGxEo3-Bpj6ORNVQll2-21" value="Send &#39;Departments&#39; List" style="html=1;verticalAlign=bottom;endArrow=block;curved=0;rounded=0;strokeColor=#457B9D;fontColor=#1D3557;fillColor=#A8DADC;" edge="1" parent="1">
          <mxGeometry width="80" relative="1" as="geometry">
            <mxPoint x="640" y="321" as="sourcePoint" />
            <mxPoint x="360" y="321" as="targetPoint" />
          </mxGeometry>
        </mxCell>
        <mxCell id="diGxEo3-Bpj6ORNVQll2-22" value="Send request for &#39;Roles&#39; List" style="html=1;verticalAlign=bottom;endArrow=block;curved=0;rounded=0;strokeColor=#457B9D;fontColor=#1D3557;fillColor=#A8DADC;" edge="1" parent="1">
          <mxGeometry width="80" relative="1" as="geometry">
            <mxPoint x="360" y="360" as="sourcePoint" />
            <mxPoint x="640" y="360" as="targetPoint" />
            <mxPoint as="offset" />
          </mxGeometry>
        </mxCell>
        <mxCell id="diGxEo3-Bpj6ORNVQll2-23" value="Get &#39;Roles&#39; List" style="html=1;verticalAlign=bottom;endArrow=block;curved=0;rounded=0;strokeColor=#457B9D;fontColor=#1D3557;fillColor=#A8DADC;" edge="1" parent="1">
          <mxGeometry width="80" relative="1" as="geometry">
            <mxPoint x="640" y="381" as="sourcePoint" />
            <mxPoint x="1200" y="381" as="targetPoint" />
          </mxGeometry>
        </mxCell>
        <mxCell id="diGxEo3-Bpj6ORNVQll2-24" value="Send &#39;Roles&#39; List" style="html=1;verticalAlign=bottom;endArrow=block;curved=0;rounded=0;strokeColor=#457B9D;fontColor=#1D3557;fillColor=#A8DADC;" edge="1" parent="1">
          <mxGeometry width="80" relative="1" as="geometry">
            <mxPoint x="1200" y="475" as="sourcePoint" />
            <mxPoint x="640" y="475" as="targetPoint" />
          </mxGeometry>
        </mxCell>
        <mxCell id="diGxEo3-Bpj6ORNVQll2-25" value="Form &#39;Roles&#39; List" style="html=1;verticalAlign=bottom;endArrow=block;curved=0;rounded=0;strokeColor=#457B9D;fontColor=#1D3557;fillColor=#A8DADC;" edge="1" parent="1">
          <mxGeometry width="80" relative="1" as="geometry">
            <mxPoint x="1200" y="395" as="sourcePoint" />
            <mxPoint x="1200" y="455" as="targetPoint" />
            <Array as="points">
              <mxPoint x="1280" y="395" />
              <mxPoint x="1280" y="455" />
            </Array>
          </mxGeometry>
        </mxCell>
        <mxCell id="diGxEo3-Bpj6ORNVQll2-26" value="Send &#39;Roles&#39; List" style="html=1;verticalAlign=bottom;endArrow=block;curved=0;rounded=0;strokeColor=#457B9D;fontColor=#1D3557;fillColor=#A8DADC;" edge="1" parent="1">
          <mxGeometry width="80" relative="1" as="geometry">
            <mxPoint x="640" y="496" as="sourcePoint" />
            <mxPoint x="360" y="496" as="targetPoint" />
          </mxGeometry>
        </mxCell>
        <mxCell id="diGxEo3-Bpj6ORNVQll2-28" value="Press at &#39;Roles Drop-down List&#39;" style="html=1;verticalAlign=bottom;endArrow=block;curved=0;rounded=0;strokeColor=#457B9D;fontColor=#1D3557;fillColor=#A8DADC;" edge="1" parent="1">
          <mxGeometry width="80" relative="1" as="geometry">
            <mxPoint x="77.5" y="740" as="sourcePoint" />
            <mxPoint x="357.5" y="740" as="targetPoint" />
          </mxGeometry>
        </mxCell>
        <mxCell id="diGxEo3-Bpj6ORNVQll2-29" value="Show &#39;Roles List&#39;" style="html=1;verticalAlign=bottom;endArrow=block;curved=0;rounded=0;strokeColor=#457B9D;fontColor=#1D3557;fillColor=#A8DADC;" edge="1" parent="1">
          <mxGeometry width="80" relative="1" as="geometry">
            <mxPoint x="360" y="770" as="sourcePoint" />
            <mxPoint x="80" y="770" as="targetPoint" />
          </mxGeometry>
        </mxCell>
        <mxCell id="diGxEo3-Bpj6ORNVQll2-30" value="Pick User Role" style="html=1;verticalAlign=bottom;endArrow=block;curved=0;rounded=0;strokeColor=#457B9D;fontColor=#1D3557;fillColor=#A8DADC;" edge="1" parent="1">
          <mxGeometry width="80" relative="1" as="geometry">
            <mxPoint x="80" y="810" as="sourcePoint" />
            <mxPoint x="360" y="810" as="targetPoint" />
          </mxGeometry>
        </mxCell>
        <mxCell id="diGxEo3-Bpj6ORNVQll2-31" value="Press at &#39;Department Drop-down List&#39;" style="html=1;verticalAlign=bottom;endArrow=block;curved=0;rounded=0;strokeColor=#457B9D;fontColor=#1D3557;fillColor=#A8DADC;" edge="1" parent="1">
          <mxGeometry width="80" relative="1" as="geometry">
            <mxPoint x="80" y="850" as="sourcePoint" />
            <mxPoint x="360" y="850" as="targetPoint" />
          </mxGeometry>
        </mxCell>
        <mxCell id="diGxEo3-Bpj6ORNVQll2-33" value="" style="endArrow=none;dashed=1;html=1;rounded=0;strokeColor=#457B9D;fontColor=#1D3557;fillColor=#A8DADC;entryX=1.007;entryY=0.78;entryDx=0;entryDy=0;entryPerimeter=0;" edge="1" parent="1">
          <mxGeometry width="50" height="50" relative="1" as="geometry">
            <mxPoint x="68" y="1040" as="sourcePoint" />
            <mxPoint x="372.0999999999999" y="1040" as="targetPoint" />
          </mxGeometry>
        </mxCell>
        <mxCell id="diGxEo3-Bpj6ORNVQll2-34" value="[Data Producer Role Chosen]" style="text;html=1;strokeColor=none;fillColor=none;align=center;verticalAlign=middle;whiteSpace=wrap;rounded=0;fontColor=#1D3557;" vertex="1" parent="1">
          <mxGeometry x="130" y="900" width="180" height="30" as="geometry" />
        </mxCell>
        <mxCell id="diGxEo3-Bpj6ORNVQll2-35" value="[Other Role Chosen]" style="text;html=1;strokeColor=none;fillColor=none;align=center;verticalAlign=middle;whiteSpace=wrap;rounded=0;fontColor=#1D3557;" vertex="1" parent="1">
          <mxGeometry x="50" y="1040" width="180" height="30" as="geometry" />
        </mxCell>
        <mxCell id="diGxEo3-Bpj6ORNVQll2-36" value="Show &#39;Department Drop-down List&#39; with radiobuttons" style="html=1;verticalAlign=bottom;endArrow=block;curved=0;rounded=0;strokeColor=#457B9D;fontColor=#1D3557;fillColor=#A8DADC;" edge="1" parent="1">
          <mxGeometry width="80" relative="1" as="geometry">
            <mxPoint x="360" y="980" as="sourcePoint" />
            <mxPoint x="80" y="980" as="targetPoint" />
          </mxGeometry>
        </mxCell>
        <mxCell id="diGxEo3-Bpj6ORNVQll2-37" value="Show &#39;Department Drop-down List&#39; with checkboxes" style="html=1;verticalAlign=bottom;endArrow=block;curved=0;rounded=0;strokeColor=#457B9D;fontColor=#1D3557;fillColor=#A8DADC;" edge="1" parent="1">
          <mxGeometry width="80" relative="1" as="geometry">
            <mxPoint x="357.5" y="1100" as="sourcePoint" />
            <mxPoint x="77.5" y="1100" as="targetPoint" />
          </mxGeometry>
        </mxCell>
        <mxCell id="diGxEo3-Bpj6ORNVQll2-38" value="Choose Single Department" style="html=1;verticalAlign=bottom;endArrow=block;curved=0;rounded=0;strokeColor=#457B9D;fontColor=#1D3557;fillColor=#A8DADC;" edge="1" parent="1">
          <mxGeometry width="80" relative="1" as="geometry">
            <mxPoint x="80" y="1020" as="sourcePoint" />
            <mxPoint x="360" y="1020" as="targetPoint" />
          </mxGeometry>
        </mxCell>
        <mxCell id="diGxEo3-Bpj6ORNVQll2-39" value="Choose One or More Departments" style="html=1;verticalAlign=bottom;endArrow=block;curved=0;rounded=0;strokeColor=#457B9D;fontColor=#1D3557;fillColor=#A8DADC;" edge="1" parent="1">
          <mxGeometry width="80" relative="1" as="geometry">
            <mxPoint x="80" y="1150" as="sourcePoint" />
            <mxPoint x="360" y="1150" as="targetPoint" />
          </mxGeometry>
        </mxCell>
        <mxCell id="diGxEo3-Bpj6ORNVQll2-40" value="&#39;Create User&#39; Button Pressed" style="html=1;verticalAlign=bottom;endArrow=block;curved=0;rounded=0;strokeColor=#457B9D;fontColor=#1D3557;fillColor=#A8DADC;" edge="1" parent="1">
          <mxGeometry width="80" relative="1" as="geometry">
            <mxPoint x="80" y="1240" as="sourcePoint" />
            <mxPoint x="360" y="1240" as="targetPoint" />
          </mxGeometry>
        </mxCell>
        <mxCell id="diGxEo3-Bpj6ORNVQll2-41" value="Send Completed User Data to Add" style="html=1;verticalAlign=bottom;endArrow=block;curved=0;rounded=0;strokeColor=#457B9D;fontColor=#1D3557;fillColor=#A8DADC;" edge="1" parent="1">
          <mxGeometry width="80" relative="1" as="geometry">
            <mxPoint x="360" y="1280" as="sourcePoint" />
            <mxPoint x="640" y="1280" as="targetPoint" />
          </mxGeometry>
        </mxCell>
        <mxCell id="diGxEo3-Bpj6ORNVQll2-42" value="Send Data to Transaction to Add" style="html=1;verticalAlign=bottom;endArrow=block;curved=0;rounded=0;strokeColor=#457B9D;fontColor=#1D3557;fillColor=#A8DADC;" edge="1" parent="1">
          <mxGeometry width="80" relative="1" as="geometry">
            <mxPoint x="640" y="1550" as="sourcePoint" />
            <mxPoint x="920" y="1550" as="targetPoint" />
            <mxPoint as="offset" />
          </mxGeometry>
        </mxCell>
        <mxCell id="diGxEo3-Bpj6ORNVQll2-45" value="" style="endArrow=none;dashed=1;html=1;rounded=0;strokeColor=#457B9D;fontColor=#1D3557;fillColor=#A8DADC;entryX=1.007;entryY=0.78;entryDx=0;entryDy=0;entryPerimeter=0;exitX=-0.002;exitY=0.55;exitDx=0;exitDy=0;exitPerimeter=0;" edge="1" parent="1" source="diGxEo3-Bpj6ORNVQll2-44">
          <mxGeometry width="50" height="50" relative="1" as="geometry">
            <mxPoint x="910" y="1690" as="sourcePoint" />
            <mxPoint x="1214.1" y="1690" as="targetPoint" />
          </mxGeometry>
        </mxCell>
        <mxCell id="diGxEo3-Bpj6ORNVQll2-46" value="[Login is Unique]" style="text;html=1;strokeColor=none;fillColor=none;align=center;verticalAlign=middle;whiteSpace=wrap;rounded=0;fontColor=#1D3557;" vertex="1" parent="1">
          <mxGeometry x="70" y="1580" width="180" height="30" as="geometry" />
        </mxCell>
        <mxCell id="diGxEo3-Bpj6ORNVQll2-48" value="Encode Data Using RSA" style="html=1;verticalAlign=bottom;endArrow=block;curved=0;rounded=0;strokeColor=#457B9D;fontColor=#1D3557;fillColor=#A8DADC;" edge="1" parent="1">
          <mxGeometry width="80" relative="1" as="geometry">
            <mxPoint x="640" y="1300" as="sourcePoint" />
            <mxPoint x="640" y="1400" as="targetPoint" />
            <Array as="points">
              <mxPoint x="720" y="1300" />
              <mxPoint x="720" y="1400" />
            </Array>
          </mxGeometry>
        </mxCell>
        <mxCell id="diGxEo3-Bpj6ORNVQll2-50" value="Add User to DB" style="html=1;verticalAlign=bottom;endArrow=block;curved=0;rounded=0;strokeColor=#457B9D;fontColor=#1D3557;fillColor=#A8DADC;" edge="1" parent="1">
          <mxGeometry width="80" relative="1" as="geometry">
            <mxPoint x="920" y="1610" as="sourcePoint" />
            <mxPoint x="1200" y="1610" as="targetPoint" />
          </mxGeometry>
        </mxCell>
        <mxCell id="diGxEo3-Bpj6ORNVQll2-51" value="Send &#39;Success&#39; message" style="html=1;verticalAlign=bottom;endArrow=block;curved=0;rounded=0;strokeColor=#457B9D;fontColor=#1D3557;fillColor=#A8DADC;" edge="1" parent="1">
          <mxGeometry width="80" relative="1" as="geometry">
            <mxPoint x="920" y="1640" as="sourcePoint" />
            <mxPoint x="640" y="1640" as="targetPoint" />
          </mxGeometry>
        </mxCell>
        <mxCell id="diGxEo3-Bpj6ORNVQll2-52" value="Send &#39;Success&#39; message" style="html=1;verticalAlign=bottom;endArrow=block;curved=0;rounded=0;strokeColor=#457B9D;fontColor=#1D3557;fillColor=#A8DADC;" edge="1" parent="1">
          <mxGeometry width="80" relative="1" as="geometry">
            <mxPoint x="640" y="1660" as="sourcePoint" />
            <mxPoint x="360" y="1660" as="targetPoint" />
          </mxGeometry>
        </mxCell>
        <mxCell id="diGxEo3-Bpj6ORNVQll2-53" value="Show &#39;User Successfully added&#39;" style="html=1;verticalAlign=bottom;endArrow=block;curved=0;rounded=0;strokeColor=#457B9D;fontColor=#1D3557;fillColor=#A8DADC;" edge="1" parent="1">
          <mxGeometry width="80" relative="1" as="geometry">
            <mxPoint x="360" y="1679.5" as="sourcePoint" />
            <mxPoint x="80" y="1679.5" as="targetPoint" />
          </mxGeometry>
        </mxCell>
        <mxCell id="diGxEo3-Bpj6ORNVQll2-54" value="Send &#39;Error&#39; message" style="html=1;verticalAlign=bottom;endArrow=block;curved=0;rounded=0;strokeColor=#457B9D;fontColor=#1D3557;fillColor=#A8DADC;" edge="1" parent="1">
          <mxGeometry width="80" relative="1" as="geometry">
            <mxPoint x="920" y="1732" as="sourcePoint" />
            <mxPoint x="640" y="1732" as="targetPoint" />
          </mxGeometry>
        </mxCell>
        <mxCell id="diGxEo3-Bpj6ORNVQll2-55" value="Send &#39;Error&#39; message" style="html=1;verticalAlign=bottom;endArrow=block;curved=0;rounded=0;strokeColor=#457B9D;fontColor=#1D3557;fillColor=#A8DADC;" edge="1" parent="1">
          <mxGeometry width="80" relative="1" as="geometry">
            <mxPoint x="640" y="1752" as="sourcePoint" />
            <mxPoint x="360" y="1752" as="targetPoint" />
          </mxGeometry>
        </mxCell>
        <mxCell id="diGxEo3-Bpj6ORNVQll2-56" value="Show &#39;User With Entered Login Already Exist&#39;" style="html=1;verticalAlign=bottom;endArrow=block;curved=0;rounded=0;strokeColor=#457B9D;fontColor=#1D3557;fillColor=#A8DADC;" edge="1" parent="1">
          <mxGeometry width="80" relative="1" as="geometry">
            <mxPoint x="360" y="1771.5" as="sourcePoint" />
            <mxPoint x="80" y="1771.5" as="targetPoint" />
          </mxGeometry>
        </mxCell>
        <mxCell id="diGxEo3-Bpj6ORNVQll2-57" value="" style="endArrow=none;dashed=1;html=1;dashPattern=1 3;strokeWidth=2;rounded=0;strokeColor=#457B9D;fontColor=#1D3557;fillColor=#A8DADC;entryX=0.586;entryY=1.05;entryDx=0;entryDy=0;entryPerimeter=0;" edge="1" parent="1" source="diGxEo3-Bpj6ORNVQll2-60" target="diGxEo3-Bpj6ORNVQll2-58">
          <mxGeometry width="50" height="50" relative="1" as="geometry">
            <mxPoint x="361" y="1960" as="sourcePoint" />
            <mxPoint x="361" y="83" as="targetPoint" />
          </mxGeometry>
        </mxCell>
        <mxCell id="diGxEo3-Bpj6ORNVQll2-58" value="" style="html=1;points=[[0,0,0,0,5],[0,1,0,0,-5],[1,0,0,0,5],[1,1,0,0,-5]];perimeter=orthogonalPerimeter;outlineConnect=0;targetShapes=umlLifeline;portConstraint=eastwest;newEdgeStyle={&quot;curved&quot;:0,&quot;rounded&quot;:0};strokeColor=#457B9D;fontColor=#1D3557;fillColor=#A8DADC;" vertex="1" parent="1">
          <mxGeometry x="355" y="180" width="10" height="140" as="geometry" />
        </mxCell>
        <mxCell id="diGxEo3-Bpj6ORNVQll2-59" value="" style="endArrow=none;dashed=1;html=1;dashPattern=1 3;strokeWidth=2;rounded=0;strokeColor=#457B9D;fontColor=#1D3557;fillColor=#A8DADC;entryX=0.586;entryY=1.05;entryDx=0;entryDy=0;entryPerimeter=0;" edge="1" parent="1" source="diGxEo3-Bpj6ORNVQll2-81" target="diGxEo3-Bpj6ORNVQll2-60">
          <mxGeometry width="50" height="50" relative="1" as="geometry">
            <mxPoint x="361" y="1960" as="sourcePoint" />
            <mxPoint x="361" y="327" as="targetPoint" />
          </mxGeometry>
        </mxCell>
        <mxCell id="diGxEo3-Bpj6ORNVQll2-60" value="" style="html=1;points=[[0,0,0,0,5],[0,1,0,0,-5],[1,0,0,0,5],[1,1,0,0,-5]];perimeter=orthogonalPerimeter;outlineConnect=0;targetShapes=umlLifeline;portConstraint=eastwest;newEdgeStyle={&quot;curved&quot;:0,&quot;rounded&quot;:0};strokeColor=#457B9D;fontColor=#1D3557;fillColor=#A8DADC;" vertex="1" parent="1">
          <mxGeometry x="355" y="360" width="10" height="140" as="geometry" />
        </mxCell>
        <mxCell id="diGxEo3-Bpj6ORNVQll2-63" value="Show &#39;Nick Name&#39; and &#39;Login&#39; input fields" style="html=1;verticalAlign=bottom;endArrow=block;curved=0;rounded=0;strokeColor=#457B9D;fontColor=#1D3557;fillColor=#A8DADC;" edge="1" parent="1">
          <mxGeometry width="80" relative="1" as="geometry">
            <mxPoint x="360" y="170" as="sourcePoint" />
            <mxPoint x="80" y="170" as="targetPoint" />
          </mxGeometry>
        </mxCell>
        <mxCell id="diGxEo3-Bpj6ORNVQll2-66" value="" style="endArrow=none;dashed=1;html=1;dashPattern=1 3;strokeWidth=2;rounded=0;strokeColor=#457B9D;fontColor=#1D3557;fillColor=#A8DADC;entryX=0.5;entryY=0.5;entryDx=0;entryDy=0;entryPerimeter=0;" edge="1" parent="1" source="diGxEo3-Bpj6ORNVQll2-78" target="diGxEo3-Bpj6ORNVQll2-64">
          <mxGeometry width="50" height="50" relative="1" as="geometry">
            <mxPoint x="80" y="1960" as="sourcePoint" />
            <mxPoint x="80" y="50" as="targetPoint" />
          </mxGeometry>
        </mxCell>
        <mxCell id="diGxEo3-Bpj6ORNVQll2-64" value="" style="html=1;points=[[0,0,0,0,5],[0,1,0,0,-5],[1,0,0,0,5],[1,1,0,0,-5]];perimeter=orthogonalPerimeter;outlineConnect=0;targetShapes=umlLifeline;portConstraint=eastwest;newEdgeStyle={&quot;curved&quot;:0,&quot;rounded&quot;:0};strokeColor=#457B9D;fontColor=#1D3557;fillColor=#A8DADC;" vertex="1" parent="1">
          <mxGeometry x="75" y="130" width="10" height="40" as="geometry" />
        </mxCell>
        <mxCell id="diGxEo3-Bpj6ORNVQll2-67" value="" style="endArrow=none;dashed=1;html=1;dashPattern=1 3;strokeWidth=2;rounded=0;strokeColor=#457B9D;fontColor=#1D3557;fillColor=#A8DADC;entryX=0.5;entryY=1;entryDx=0;entryDy=0;entryPerimeter=0;" edge="1" parent="1" source="diGxEo3-Bpj6ORNVQll2-71" target="diGxEo3-Bpj6ORNVQll2-68">
          <mxGeometry width="50" height="50" relative="1" as="geometry">
            <mxPoint x="640" y="1960" as="sourcePoint" />
            <mxPoint x="640" y="80" as="targetPoint" />
          </mxGeometry>
        </mxCell>
        <mxCell id="diGxEo3-Bpj6ORNVQll2-68" value="" style="html=1;points=[[0,0,0,0,5],[0,1,0,0,-5],[1,0,0,0,5],[1,1,0,0,-5]];perimeter=orthogonalPerimeter;outlineConnect=0;targetShapes=umlLifeline;portConstraint=eastwest;newEdgeStyle={&quot;curved&quot;:0,&quot;rounded&quot;:0};strokeColor=#457B9D;fontColor=#1D3557;fillColor=#A8DADC;" vertex="1" parent="1">
          <mxGeometry x="635" y="210" width="10" height="90" as="geometry" />
        </mxCell>
        <mxCell id="diGxEo3-Bpj6ORNVQll2-70" value="" style="endArrow=none;dashed=1;html=1;dashPattern=1 3;strokeWidth=2;rounded=0;strokeColor=#457B9D;fontColor=#1D3557;fillColor=#A8DADC;entryX=0.5;entryY=1;entryDx=0;entryDy=0;" edge="1" parent="1" source="diGxEo3-Bpj6ORNVQll2-73" target="diGxEo3-Bpj6ORNVQll2-69">
          <mxGeometry width="50" height="50" relative="1" as="geometry">
            <mxPoint x="1200" y="1960" as="sourcePoint" />
            <mxPoint x="1200" y="75" as="targetPoint" />
          </mxGeometry>
        </mxCell>
        <mxCell id="diGxEo3-Bpj6ORNVQll2-69" value="" style="html=1;points=[[0,0,0,0,5],[0,1,0,0,-5],[1,0,0,0,5],[1,1,0,0,-5]];perimeter=orthogonalPerimeter;outlineConnect=0;targetShapes=umlLifeline;portConstraint=eastwest;newEdgeStyle={&quot;curved&quot;:0,&quot;rounded&quot;:0};strokeColor=#457B9D;fontColor=#1D3557;fillColor=#A8DADC;" vertex="1" parent="1">
          <mxGeometry x="1195" y="220" width="10" height="60" as="geometry" />
        </mxCell>
        <mxCell id="diGxEo3-Bpj6ORNVQll2-72" value="" style="endArrow=none;dashed=1;html=1;dashPattern=1 3;strokeWidth=2;rounded=0;strokeColor=#457B9D;fontColor=#1D3557;fillColor=#A8DADC;entryX=0.5;entryY=1;entryDx=0;entryDy=0;entryPerimeter=0;" edge="1" parent="1" source="diGxEo3-Bpj6ORNVQll2-103" target="diGxEo3-Bpj6ORNVQll2-71">
          <mxGeometry width="50" height="50" relative="1" as="geometry">
            <mxPoint x="640" y="1960" as="sourcePoint" />
            <mxPoint x="640" y="300" as="targetPoint" />
          </mxGeometry>
        </mxCell>
        <mxCell id="diGxEo3-Bpj6ORNVQll2-71" value="" style="html=1;points=[[0,0,0,0,5],[0,1,0,0,-5],[1,0,0,0,5],[1,1,0,0,-5]];perimeter=orthogonalPerimeter;outlineConnect=0;targetShapes=umlLifeline;portConstraint=eastwest;newEdgeStyle={&quot;curved&quot;:0,&quot;rounded&quot;:0};strokeColor=#457B9D;fontColor=#1D3557;fillColor=#A8DADC;" vertex="1" parent="1">
          <mxGeometry x="635" y="380" width="10" height="100" as="geometry" />
        </mxCell>
        <mxCell id="diGxEo3-Bpj6ORNVQll2-74" value="" style="endArrow=none;dashed=1;html=1;dashPattern=1 3;strokeWidth=2;rounded=0;strokeColor=#457B9D;fontColor=#1D3557;fillColor=#A8DADC;entryX=0.5;entryY=1;entryDx=0;entryDy=0;" edge="1" parent="1" target="diGxEo3-Bpj6ORNVQll2-73">
          <mxGeometry width="50" height="50" relative="1" as="geometry">
            <mxPoint x="1200" y="1840" as="sourcePoint" />
            <mxPoint x="1200" y="280" as="targetPoint" />
          </mxGeometry>
        </mxCell>
        <mxCell id="diGxEo3-Bpj6ORNVQll2-73" value="" style="html=1;points=[[0,0,0,0,5],[0,1,0,0,-5],[1,0,0,0,5],[1,1,0,0,-5]];perimeter=orthogonalPerimeter;outlineConnect=0;targetShapes=umlLifeline;portConstraint=eastwest;newEdgeStyle={&quot;curved&quot;:0,&quot;rounded&quot;:0};strokeColor=#457B9D;fontColor=#1D3557;fillColor=#A8DADC;" vertex="1" parent="1">
          <mxGeometry x="1195" y="390" width="10" height="70" as="geometry" />
        </mxCell>
        <mxCell id="diGxEo3-Bpj6ORNVQll2-75" value="Press &#39;Add Pass too&#39; button" style="html=1;verticalAlign=bottom;endArrow=block;curved=0;rounded=0;strokeColor=#457B9D;fontColor=#1D3557;fillColor=#A8DADC;" edge="1" parent="1">
          <mxGeometry width="80" relative="1" as="geometry">
            <mxPoint x="80" y="620" as="sourcePoint" />
            <mxPoint x="360" y="620" as="targetPoint" />
            <mxPoint as="offset" />
          </mxGeometry>
        </mxCell>
        <mxCell id="diGxEo3-Bpj6ORNVQll2-76" value="Show &#39;Password&#39; input field" style="html=1;verticalAlign=bottom;endArrow=block;curved=0;rounded=0;strokeColor=#457B9D;fontColor=#1D3557;fillColor=#A8DADC;" edge="1" parent="1">
          <mxGeometry width="80" relative="1" as="geometry">
            <mxPoint x="360" y="650" as="sourcePoint" />
            <mxPoint x="80" y="650" as="targetPoint" />
          </mxGeometry>
        </mxCell>
        <mxCell id="diGxEo3-Bpj6ORNVQll2-77" value="" style="endArrow=none;dashed=1;html=1;dashPattern=1 3;strokeWidth=2;rounded=0;strokeColor=#457B9D;fontColor=#1D3557;fillColor=#A8DADC;entryX=0.5;entryY=0.5;entryDx=0;entryDy=0;entryPerimeter=0;" edge="1" parent="1" source="diGxEo3-Bpj6ORNVQll2-84" target="diGxEo3-Bpj6ORNVQll2-78">
          <mxGeometry width="50" height="50" relative="1" as="geometry">
            <mxPoint x="80" y="1960" as="sourcePoint" />
            <mxPoint x="80" y="150" as="targetPoint" />
          </mxGeometry>
        </mxCell>
        <mxCell id="diGxEo3-Bpj6ORNVQll2-78" value="" style="html=1;points=[[0,0,0,0,5],[0,1,0,0,-5],[1,0,0,0,5],[1,1,0,0,-5]];perimeter=orthogonalPerimeter;outlineConnect=0;targetShapes=umlLifeline;portConstraint=eastwest;newEdgeStyle={&quot;curved&quot;:0,&quot;rounded&quot;:0};strokeColor=#457B9D;fontColor=#1D3557;fillColor=#A8DADC;" vertex="1" parent="1">
          <mxGeometry x="75" y="540" width="10" height="80" as="geometry" />
        </mxCell>
        <mxCell id="diGxEo3-Bpj6ORNVQll2-27" value="Opt" style="shape=umlFrame;whiteSpace=wrap;html=1;pointerEvents=0;strokeColor=#457B9D;fontColor=#1D3557;fillColor=#A8DADC;" vertex="1" parent="1">
          <mxGeometry x="65" y="580" width="305" height="120" as="geometry" />
        </mxCell>
        <mxCell id="diGxEo3-Bpj6ORNVQll2-79" value="" style="html=1;points=[[0,0,0,0,5],[0,1,0,0,-5],[1,0,0,0,5],[1,1,0,0,-5]];perimeter=orthogonalPerimeter;outlineConnect=0;targetShapes=umlLifeline;portConstraint=eastwest;newEdgeStyle={&quot;curved&quot;:0,&quot;rounded&quot;:0};strokeColor=#457B9D;fontColor=#1D3557;fillColor=#A8DADC;" vertex="1" parent="1">
          <mxGeometry x="75" y="650" width="10" height="30" as="geometry" />
        </mxCell>
        <mxCell id="diGxEo3-Bpj6ORNVQll2-80" value="" style="html=1;points=[[0,0,0,0,5],[0,1,0,0,-5],[1,0,0,0,5],[1,1,0,0,-5]];perimeter=orthogonalPerimeter;outlineConnect=0;targetShapes=umlLifeline;portConstraint=eastwest;newEdgeStyle={&quot;curved&quot;:0,&quot;rounded&quot;:0};strokeColor=#457B9D;fontColor=#1D3557;fillColor=#A8DADC;" vertex="1" parent="1">
          <mxGeometry x="355" y="620" width="10" height="30" as="geometry" />
        </mxCell>
        <mxCell id="diGxEo3-Bpj6ORNVQll2-83" value="" style="endArrow=none;dashed=1;html=1;dashPattern=1 3;strokeWidth=2;rounded=0;strokeColor=#457B9D;fontColor=#1D3557;fillColor=#A8DADC;entryX=0.586;entryY=1.05;entryDx=0;entryDy=0;entryPerimeter=0;" edge="1" parent="1" source="diGxEo3-Bpj6ORNVQll2-86" target="diGxEo3-Bpj6ORNVQll2-81">
          <mxGeometry width="50" height="50" relative="1" as="geometry">
            <mxPoint x="361" y="1960" as="sourcePoint" />
            <mxPoint x="361" y="507" as="targetPoint" />
          </mxGeometry>
        </mxCell>
        <mxCell id="diGxEo3-Bpj6ORNVQll2-81" value="" style="html=1;points=[[0,0,0,0,5],[0,1,0,0,-5],[1,0,0,0,5],[1,1,0,0,-5]];perimeter=orthogonalPerimeter;outlineConnect=0;targetShapes=umlLifeline;portConstraint=eastwest;newEdgeStyle={&quot;curved&quot;:0,&quot;rounded&quot;:0};strokeColor=#457B9D;fontColor=#1D3557;fillColor=#A8DADC;" vertex="1" parent="1">
          <mxGeometry x="355" y="740" width="10" height="30" as="geometry" />
        </mxCell>
        <mxCell id="diGxEo3-Bpj6ORNVQll2-85" value="" style="endArrow=none;dashed=1;html=1;dashPattern=1 3;strokeWidth=2;rounded=0;strokeColor=#457B9D;fontColor=#1D3557;fillColor=#A8DADC;entryX=0.5;entryY=0.5;entryDx=0;entryDy=0;entryPerimeter=0;" edge="1" parent="1" source="diGxEo3-Bpj6ORNVQll2-88" target="diGxEo3-Bpj6ORNVQll2-84">
          <mxGeometry width="50" height="50" relative="1" as="geometry">
            <mxPoint x="80" y="1960" as="sourcePoint" />
            <mxPoint x="80" y="580" as="targetPoint" />
          </mxGeometry>
        </mxCell>
        <mxCell id="diGxEo3-Bpj6ORNVQll2-84" value="" style="html=1;points=[[0,0,0,0,5],[0,1,0,0,-5],[1,0,0,0,5],[1,1,0,0,-5]];perimeter=orthogonalPerimeter;outlineConnect=0;targetShapes=umlLifeline;portConstraint=eastwest;newEdgeStyle={&quot;curved&quot;:0,&quot;rounded&quot;:0};strokeColor=#457B9D;fontColor=#1D3557;fillColor=#A8DADC;" vertex="1" parent="1">
          <mxGeometry x="75" y="810" width="10" height="40" as="geometry" />
        </mxCell>
        <mxCell id="diGxEo3-Bpj6ORNVQll2-87" value="" style="endArrow=none;dashed=1;html=1;dashPattern=1 3;strokeWidth=2;rounded=0;strokeColor=#457B9D;fontColor=#1D3557;fillColor=#A8DADC;entryX=0.586;entryY=1.05;entryDx=0;entryDy=0;entryPerimeter=0;" edge="1" parent="1" source="diGxEo3-Bpj6ORNVQll2-90" target="diGxEo3-Bpj6ORNVQll2-86">
          <mxGeometry width="50" height="50" relative="1" as="geometry">
            <mxPoint x="361" y="1960" as="sourcePoint" />
            <mxPoint x="361" y="772" as="targetPoint" />
          </mxGeometry>
        </mxCell>
        <mxCell id="diGxEo3-Bpj6ORNVQll2-86" value="" style="html=1;points=[[0,0,0,0,5],[0,1,0,0,-5],[1,0,0,0,5],[1,1,0,0,-5]];perimeter=orthogonalPerimeter;outlineConnect=0;targetShapes=umlLifeline;portConstraint=eastwest;newEdgeStyle={&quot;curved&quot;:0,&quot;rounded&quot;:0};strokeColor=#457B9D;fontColor=#1D3557;fillColor=#A8DADC;" vertex="1" parent="1">
          <mxGeometry x="355" y="970" width="10" height="10" as="geometry" />
        </mxCell>
        <mxCell id="diGxEo3-Bpj6ORNVQll2-89" value="" style="endArrow=none;dashed=1;html=1;dashPattern=1 3;strokeWidth=2;rounded=0;strokeColor=#457B9D;fontColor=#1D3557;fillColor=#A8DADC;entryX=0.5;entryY=0.5;entryDx=0;entryDy=0;entryPerimeter=0;" edge="1" parent="1" source="diGxEo3-Bpj6ORNVQll2-92" target="diGxEo3-Bpj6ORNVQll2-88">
          <mxGeometry width="50" height="50" relative="1" as="geometry">
            <mxPoint x="80" y="1960" as="sourcePoint" />
            <mxPoint x="80" y="830" as="targetPoint" />
          </mxGeometry>
        </mxCell>
        <mxCell id="diGxEo3-Bpj6ORNVQll2-88" value="" style="html=1;points=[[0,0,0,0,5],[0,1,0,0,-5],[1,0,0,0,5],[1,1,0,0,-5]];perimeter=orthogonalPerimeter;outlineConnect=0;targetShapes=umlLifeline;portConstraint=eastwest;newEdgeStyle={&quot;curved&quot;:0,&quot;rounded&quot;:0};strokeColor=#457B9D;fontColor=#1D3557;fillColor=#A8DADC;" vertex="1" parent="1">
          <mxGeometry x="75" y="980" width="10" height="40" as="geometry" />
        </mxCell>
        <mxCell id="diGxEo3-Bpj6ORNVQll2-91" value="" style="endArrow=none;dashed=1;html=1;dashPattern=1 3;strokeWidth=2;rounded=0;strokeColor=#457B9D;fontColor=#1D3557;fillColor=#A8DADC;entryX=0.586;entryY=1.05;entryDx=0;entryDy=0;entryPerimeter=0;" edge="1" parent="1" source="diGxEo3-Bpj6ORNVQll2-99" target="diGxEo3-Bpj6ORNVQll2-90">
          <mxGeometry width="50" height="50" relative="1" as="geometry">
            <mxPoint x="361" y="1960" as="sourcePoint" />
            <mxPoint x="361" y="981" as="targetPoint" />
          </mxGeometry>
        </mxCell>
        <mxCell id="diGxEo3-Bpj6ORNVQll2-90" value="" style="html=1;points=[[0,0,0,0,5],[0,1,0,0,-5],[1,0,0,0,5],[1,1,0,0,-5]];perimeter=orthogonalPerimeter;outlineConnect=0;targetShapes=umlLifeline;portConstraint=eastwest;newEdgeStyle={&quot;curved&quot;:0,&quot;rounded&quot;:0};strokeColor=#457B9D;fontColor=#1D3557;fillColor=#A8DADC;" vertex="1" parent="1">
          <mxGeometry x="355" y="1090" width="10" height="10" as="geometry" />
        </mxCell>
        <mxCell id="diGxEo3-Bpj6ORNVQll2-93" value="" style="endArrow=none;dashed=1;html=1;dashPattern=1 3;strokeWidth=2;rounded=0;strokeColor=#457B9D;fontColor=#1D3557;fillColor=#A8DADC;entryX=0.5;entryY=0.5;entryDx=0;entryDy=0;entryPerimeter=0;" edge="1" parent="1" source="diGxEo3-Bpj6ORNVQll2-94" target="diGxEo3-Bpj6ORNVQll2-92">
          <mxGeometry width="50" height="50" relative="1" as="geometry">
            <mxPoint x="80" y="1960" as="sourcePoint" />
            <mxPoint x="80" y="1000" as="targetPoint" />
          </mxGeometry>
        </mxCell>
        <mxCell id="diGxEo3-Bpj6ORNVQll2-92" value="" style="html=1;points=[[0,0,0,0,5],[0,1,0,0,-5],[1,0,0,0,5],[1,1,0,0,-5]];perimeter=orthogonalPerimeter;outlineConnect=0;targetShapes=umlLifeline;portConstraint=eastwest;newEdgeStyle={&quot;curved&quot;:0,&quot;rounded&quot;:0};strokeColor=#457B9D;fontColor=#1D3557;fillColor=#A8DADC;" vertex="1" parent="1">
          <mxGeometry x="75" y="1100" width="10" height="50" as="geometry" />
        </mxCell>
        <mxCell id="diGxEo3-Bpj6ORNVQll2-32" value="Alt" style="shape=umlFrame;whiteSpace=wrap;html=1;pointerEvents=0;strokeColor=#457B9D;fontColor=#1D3557;fillColor=#A8DADC;" vertex="1" parent="1">
          <mxGeometry x="70" y="900" width="300" height="290" as="geometry" />
        </mxCell>
        <mxCell id="diGxEo3-Bpj6ORNVQll2-95" value="" style="endArrow=none;dashed=1;html=1;dashPattern=1 3;strokeWidth=2;rounded=0;strokeColor=#457B9D;fontColor=#1D3557;fillColor=#A8DADC;entryX=0.5;entryY=0.5;entryDx=0;entryDy=0;entryPerimeter=0;" edge="1" parent="1" source="diGxEo3-Bpj6ORNVQll2-96" target="diGxEo3-Bpj6ORNVQll2-94">
          <mxGeometry width="50" height="50" relative="1" as="geometry">
            <mxPoint x="80" y="1960" as="sourcePoint" />
            <mxPoint x="80" y="1125" as="targetPoint" />
          </mxGeometry>
        </mxCell>
        <mxCell id="diGxEo3-Bpj6ORNVQll2-94" value="" style="html=1;points=[[0,0,0,0,5],[0,1,0,0,-5],[1,0,0,0,5],[1,1,0,0,-5]];perimeter=orthogonalPerimeter;outlineConnect=0;targetShapes=umlLifeline;portConstraint=eastwest;newEdgeStyle={&quot;curved&quot;:0,&quot;rounded&quot;:0};strokeColor=#457B9D;fontColor=#1D3557;fillColor=#A8DADC;" vertex="1" parent="1">
          <mxGeometry x="75" y="1240" width="10" height="340" as="geometry" />
        </mxCell>
        <mxCell id="diGxEo3-Bpj6ORNVQll2-97" value="" style="endArrow=none;dashed=1;html=1;dashPattern=1 3;strokeWidth=2;rounded=0;strokeColor=#457B9D;fontColor=#1D3557;fillColor=#A8DADC;entryX=0.5;entryY=0.5;entryDx=0;entryDy=0;entryPerimeter=0;" edge="1" parent="1" target="diGxEo3-Bpj6ORNVQll2-96">
          <mxGeometry width="50" height="50" relative="1" as="geometry">
            <mxPoint x="80" y="1840" as="sourcePoint" />
            <mxPoint x="80" y="1410" as="targetPoint" />
          </mxGeometry>
        </mxCell>
        <mxCell id="diGxEo3-Bpj6ORNVQll2-96" value="" style="html=1;points=[[0,0,0,0,5],[0,1,0,0,-5],[1,0,0,0,5],[1,1,0,0,-5]];perimeter=orthogonalPerimeter;outlineConnect=0;targetShapes=umlLifeline;portConstraint=eastwest;newEdgeStyle={&quot;curved&quot;:0,&quot;rounded&quot;:0};strokeColor=#457B9D;fontColor=#1D3557;fillColor=#A8DADC;" vertex="1" parent="1">
          <mxGeometry x="75" y="1600" width="10" height="80" as="geometry" />
        </mxCell>
        <mxCell id="diGxEo3-Bpj6ORNVQll2-98" value="" style="html=1;points=[[0,0,0,0,5],[0,1,0,0,-5],[1,0,0,0,5],[1,1,0,0,-5]];perimeter=orthogonalPerimeter;outlineConnect=0;targetShapes=umlLifeline;portConstraint=eastwest;newEdgeStyle={&quot;curved&quot;:0,&quot;rounded&quot;:0};strokeColor=#457B9D;fontColor=#1D3557;fillColor=#A8DADC;" vertex="1" parent="1">
          <mxGeometry x="75" y="1690" width="10" height="80" as="geometry" />
        </mxCell>
        <mxCell id="diGxEo3-Bpj6ORNVQll2-100" value="" style="endArrow=none;dashed=1;html=1;dashPattern=1 3;strokeWidth=2;rounded=0;strokeColor=#457B9D;fontColor=#1D3557;fillColor=#A8DADC;entryX=0.586;entryY=1.05;entryDx=0;entryDy=0;entryPerimeter=0;" edge="1" parent="1" source="diGxEo3-Bpj6ORNVQll2-101" target="diGxEo3-Bpj6ORNVQll2-99">
          <mxGeometry width="50" height="50" relative="1" as="geometry">
            <mxPoint x="361" y="1960" as="sourcePoint" />
            <mxPoint x="361" y="1101" as="targetPoint" />
          </mxGeometry>
        </mxCell>
        <mxCell id="diGxEo3-Bpj6ORNVQll2-99" value="" style="html=1;points=[[0,0,0,0,5],[0,1,0,0,-5],[1,0,0,0,5],[1,1,0,0,-5]];perimeter=orthogonalPerimeter;outlineConnect=0;targetShapes=umlLifeline;portConstraint=eastwest;newEdgeStyle={&quot;curved&quot;:0,&quot;rounded&quot;:0};strokeColor=#457B9D;fontColor=#1D3557;fillColor=#A8DADC;" vertex="1" parent="1">
          <mxGeometry x="355" y="1280" width="10" height="380" as="geometry" />
        </mxCell>
        <mxCell id="diGxEo3-Bpj6ORNVQll2-102" value="" style="endArrow=none;dashed=1;html=1;dashPattern=1 3;strokeWidth=2;rounded=0;strokeColor=#457B9D;fontColor=#1D3557;fillColor=#A8DADC;entryX=0.586;entryY=1.05;entryDx=0;entryDy=0;entryPerimeter=0;" edge="1" parent="1" target="diGxEo3-Bpj6ORNVQll2-101">
          <mxGeometry width="50" height="50" relative="1" as="geometry">
            <mxPoint x="361" y="1840" as="sourcePoint" />
            <mxPoint x="361" y="1679" as="targetPoint" />
          </mxGeometry>
        </mxCell>
        <mxCell id="diGxEo3-Bpj6ORNVQll2-101" value="" style="html=1;points=[[0,0,0,0,5],[0,1,0,0,-5],[1,0,0,0,5],[1,1,0,0,-5]];perimeter=orthogonalPerimeter;outlineConnect=0;targetShapes=umlLifeline;portConstraint=eastwest;newEdgeStyle={&quot;curved&quot;:0,&quot;rounded&quot;:0};strokeColor=#457B9D;fontColor=#1D3557;fillColor=#A8DADC;" vertex="1" parent="1">
          <mxGeometry x="355" y="1690" width="10" height="60" as="geometry" />
        </mxCell>
        <mxCell id="diGxEo3-Bpj6ORNVQll2-104" value="" style="endArrow=none;dashed=1;html=1;dashPattern=1 3;strokeWidth=2;rounded=0;strokeColor=#457B9D;fontColor=#1D3557;fillColor=#A8DADC;entryX=0.5;entryY=1;entryDx=0;entryDy=0;entryPerimeter=0;" edge="1" parent="1" source="diGxEo3-Bpj6ORNVQll2-105" target="diGxEo3-Bpj6ORNVQll2-103">
          <mxGeometry width="50" height="50" relative="1" as="geometry">
            <mxPoint x="640" y="1960" as="sourcePoint" />
            <mxPoint x="640" y="480" as="targetPoint" />
          </mxGeometry>
        </mxCell>
        <mxCell id="diGxEo3-Bpj6ORNVQll2-103" value="" style="html=1;points=[[0,0,0,0,5],[0,1,0,0,-5],[1,0,0,0,5],[1,1,0,0,-5]];perimeter=orthogonalPerimeter;outlineConnect=0;targetShapes=umlLifeline;portConstraint=eastwest;newEdgeStyle={&quot;curved&quot;:0,&quot;rounded&quot;:0};strokeColor=#457B9D;fontColor=#1D3557;fillColor=#A8DADC;" vertex="1" parent="1">
          <mxGeometry x="635" y="1300" width="10" height="100" as="geometry" />
        </mxCell>
        <mxCell id="diGxEo3-Bpj6ORNVQll2-106" value="" style="endArrow=none;dashed=1;html=1;dashPattern=1 3;strokeWidth=2;rounded=0;strokeColor=#457B9D;fontColor=#1D3557;fillColor=#A8DADC;entryX=0.5;entryY=1;entryDx=0;entryDy=0;entryPerimeter=0;" edge="1" parent="1" source="diGxEo3-Bpj6ORNVQll2-107" target="diGxEo3-Bpj6ORNVQll2-105">
          <mxGeometry width="50" height="50" relative="1" as="geometry">
            <mxPoint x="640" y="1960" as="sourcePoint" />
            <mxPoint x="640" y="1400" as="targetPoint" />
          </mxGeometry>
        </mxCell>
        <mxCell id="diGxEo3-Bpj6ORNVQll2-105" value="" style="html=1;points=[[0,0,0,0,5],[0,1,0,0,-5],[1,0,0,0,5],[1,1,0,0,-5]];perimeter=orthogonalPerimeter;outlineConnect=0;targetShapes=umlLifeline;portConstraint=eastwest;newEdgeStyle={&quot;curved&quot;:0,&quot;rounded&quot;:0};strokeColor=#457B9D;fontColor=#1D3557;fillColor=#A8DADC;" vertex="1" parent="1">
          <mxGeometry x="635" y="1410" width="10" height="100" as="geometry" />
        </mxCell>
        <mxCell id="diGxEo3-Bpj6ORNVQll2-49" value="Supplement the &#39;User Data&#39; with open RSA key" style="html=1;verticalAlign=bottom;endArrow=block;curved=0;rounded=0;strokeColor=#457B9D;fontColor=#1D3557;fillColor=#A8DADC;" edge="1" parent="1">
          <mxGeometry width="80" relative="1" as="geometry">
            <mxPoint x="640" y="1410" as="sourcePoint" />
            <mxPoint x="640" y="1510" as="targetPoint" />
            <Array as="points">
              <mxPoint x="720" y="1410" />
              <mxPoint x="720" y="1510" />
            </Array>
          </mxGeometry>
        </mxCell>
        <mxCell id="diGxEo3-Bpj6ORNVQll2-108" value="" style="endArrow=none;dashed=1;html=1;dashPattern=1 3;strokeWidth=2;rounded=0;strokeColor=#457B9D;fontColor=#1D3557;fillColor=#A8DADC;entryX=0.5;entryY=1;entryDx=0;entryDy=0;entryPerimeter=0;" edge="1" parent="1" source="diGxEo3-Bpj6ORNVQll2-109" target="diGxEo3-Bpj6ORNVQll2-107">
          <mxGeometry width="50" height="50" relative="1" as="geometry">
            <mxPoint x="640" y="1960" as="sourcePoint" />
            <mxPoint x="640" y="1510" as="targetPoint" />
          </mxGeometry>
        </mxCell>
        <mxCell id="diGxEo3-Bpj6ORNVQll2-107" value="" style="html=1;points=[[0,0,0,0,5],[0,1,0,0,-5],[1,0,0,0,5],[1,1,0,0,-5]];perimeter=orthogonalPerimeter;outlineConnect=0;targetShapes=umlLifeline;portConstraint=eastwest;newEdgeStyle={&quot;curved&quot;:0,&quot;rounded&quot;:0};strokeColor=#457B9D;fontColor=#1D3557;fillColor=#A8DADC;" vertex="1" parent="1">
          <mxGeometry x="635" y="1550" width="10" height="90" as="geometry" />
        </mxCell>
        <mxCell id="diGxEo3-Bpj6ORNVQll2-110" value="" style="endArrow=none;dashed=1;html=1;dashPattern=1 3;strokeWidth=2;rounded=0;strokeColor=#457B9D;fontColor=#1D3557;fillColor=#A8DADC;entryX=0.5;entryY=1;entryDx=0;entryDy=0;entryPerimeter=0;" edge="1" parent="1" target="diGxEo3-Bpj6ORNVQll2-109">
          <mxGeometry width="50" height="50" relative="1" as="geometry">
            <mxPoint x="640" y="1840" as="sourcePoint" />
            <mxPoint x="640" y="1640" as="targetPoint" />
          </mxGeometry>
        </mxCell>
        <mxCell id="diGxEo3-Bpj6ORNVQll2-109" value="" style="html=1;points=[[0,0,0,0,5],[0,1,0,0,-5],[1,0,0,0,5],[1,1,0,0,-5]];perimeter=orthogonalPerimeter;outlineConnect=0;targetShapes=umlLifeline;portConstraint=eastwest;newEdgeStyle={&quot;curved&quot;:0,&quot;rounded&quot;:0};strokeColor=#457B9D;fontColor=#1D3557;fillColor=#A8DADC;" vertex="1" parent="1">
          <mxGeometry x="635" y="1690" width="10" height="40" as="geometry" />
        </mxCell>
        <mxCell id="diGxEo3-Bpj6ORNVQll2-112" value="" style="endArrow=none;dashed=1;html=1;dashPattern=1 3;strokeWidth=2;rounded=0;strokeColor=#457B9D;fontColor=#1D3557;fillColor=#A8DADC;entryX=0.5;entryY=1;entryDx=0;entryDy=0;entryPerimeter=0;" edge="1" parent="1" target="diGxEo3-Bpj6ORNVQll2-111">
          <mxGeometry width="50" height="50" relative="1" as="geometry">
            <mxPoint x="920" y="1840" as="sourcePoint" />
            <mxPoint x="920" y="80" as="targetPoint" />
          </mxGeometry>
        </mxCell>
        <mxCell id="diGxEo3-Bpj6ORNVQll2-111" value="" style="html=1;points=[[0,0,0,0,5],[0,1,0,0,-5],[1,0,0,0,5],[1,1,0,0,-5]];perimeter=orthogonalPerimeter;outlineConnect=0;targetShapes=umlLifeline;portConstraint=eastwest;newEdgeStyle={&quot;curved&quot;:0,&quot;rounded&quot;:0};strokeColor=#457B9D;fontColor=#1D3557;fillColor=#A8DADC;" vertex="1" parent="1">
          <mxGeometry x="915" y="1550" width="10" height="60" as="geometry" />
        </mxCell>
        <mxCell id="diGxEo3-Bpj6ORNVQll2-44" value="Alt" style="shape=umlFrame;whiteSpace=wrap;html=1;pointerEvents=0;strokeColor=#457B9D;fontColor=#1D3557;fillColor=#A8DADC;" vertex="1" parent="1">
          <mxGeometry x="40" y="1580" width="1170" height="200" as="geometry" />
        </mxCell>
        <mxCell id="diGxEo3-Bpj6ORNVQll2-47" value="[Login isn&#39;t Unique]" style="text;html=1;strokeColor=none;fillColor=none;align=center;verticalAlign=middle;whiteSpace=wrap;rounded=0;fontColor=#1D3557;" vertex="1" parent="1">
          <mxGeometry x="10" y="1690" width="180" height="30" as="geometry" />
        </mxCell>
      </root>
    </mxGraphModel>
  </diagram>
</mxfile>
